<svg xmlns="http://www.w3.org/2000/svg" xmlns:xlink="http://www.w3.org/1999/xlink" fill="none" version="1.1" width="512" height="512" viewBox="0 0 512 512"><defs><clipPath id="master_svg0_1_0737"><rect x="0" y="0" width="512" height="512" rx="0"/></clipPath><filter id="master_svg1_1_0740" filterUnits="objectBoundingBox" color-interpolation-filters="sRGB" x="-20" y="-16" width="296.1761779785156" height="400.5941162109375"><feFlood flood-opacity="0" result="BackgroundImageFix"/><feColorMatrix in="SourceAlpha" type="matrix" values="0 0 0 0 0 0 0 0 0 0 0 0 0 0 0 0 0 0 127 0"/><feOffset dy="4" dx="0"/><feGaussianBlur stdDeviation="5"/><feColorMatrix type="matrix" values="0 0 0 0 0 0 0 0 0 0 0 0 0 0 0 0 0 0 0.30000001192092896 0"/><feBlend mode="normal" in2="BackgroundImageFix" result="effect1_dropShadow"/><feBlend mode="normal" in="SourceGraphic" in2="effect1_dropShadow" result="shape"/></filter><linearGradient x1="0.5" y1="0" x2="0.5" y2="1" id="master_svg2_1_0714"><stop offset="0%" stop-color="#8D8D93" stop-opacity="1"/><stop offset="100%" stop-color="#8D8D93" stop-opacity="0"/></linearGradient><linearGradient x1="0.5" y1="0" x2="0.5" y2="1" id="master_svg3_1_0714"><stop offset="0%" stop-color="#8D8D93" stop-opacity="1"/><stop offset="100%" stop-color="#8D8D93" stop-opacity="0"/></linearGradient><filter id="master_svg4_1_0741" filterUnits="objectBoundingBox" color-interpolation-filters="sRGB" x="-20" y="-16" width="295.64759826660156" height="400.5939025878906"><feFlood flood-opacity="0" result="BackgroundImageFix"/><feColorMatrix in="SourceAlpha" type="matrix" values="0 0 0 0 0 0 0 0 0 0 0 0 0 0 0 0 0 0 127 0"/><feOffset dy="4" dx="0"/><feGaussianBlur stdDeviation="5"/><feColorMatrix type="matrix" values="0 0 0 0 0 0 0 0 0 0 0 0 0 0 0 0 0 0 0.30000001192092896 0"/><feBlend mode="normal" in2="BackgroundImageFix" result="effect1_dropShadow"/><feBlend mode="normal" in="SourceGraphic" in2="effect1_dropShadow" result="shape"/></filter><linearGradient x1="0.5" y1="0" x2="0.5" y2="1" id="master_svg5_1_953"><stop offset="0%" stop-color="#3478F6" stop-opacity="1"/><stop offset="99.28571581840515%" stop-color="#F63434" stop-opacity="0.8509804010391235"/></linearGradient><linearGradient x1="0.5" y1="0" x2="0.5" y2="1" id="master_svg6_1_534"><stop offset="0%" stop-color="#3478F6" stop-opacity="1"/><stop offset="100%" stop-color="#F63434" stop-opacity="0.8500000238418579"/></linearGradient></defs><g clip-path="url(#master_svg0_1_0737)"><g><g transform="matrix(0.9901742339134216,0.13983912765979767,-0.13983912765979767,0.9901742339134216,11.67626424699256,-22.249389513331835)" filter="url(#master_svg1_1_0740)"><rect x="164.1634979248047" y="71.96292114257812" width="256.1761779785156" height="360.5941162109375" rx="7" fill="url(#master_svg2_1_0714)" fill-opacity="1"/><rect x="156.1634979248047" y="63.962921142578125" width="272.1761779785156" height="376.5941162109375" rx="15" stroke="url(#master_svg3_1_0714)" fill-opacity="0" fill="none" stroke-width="16"/></g><g transform="matrix(0.9901742339134216,0.13983912765979767,-0.13983912765979767,0.9901742339134216,8.001352375018314,-19.87431323114987)" filter="url(#master_svg4_1_0741)"><rect x="145.4251365661621" y="47" width="255.64759826660156" height="360.5939025878906" rx="7" fill="#FFFFFF" fill-opacity="1"/><rect x="137.4251365661621" y="39" width="271.64759826660156" height="376.5939025878906" rx="15" stroke="url(#master_svg5_1_953)" fill-opacity="0" fill="none" stroke-width="16"/></g><g><path d="M233.84898425292968,100.48565281982422Q233.75658425292968,100.71905281982421,233.6548842529297,100.94845281982421Q200.47138425292968,175.83555281982422,189.70068425292968,224.6924528198242Q184.4837842529297,248.35645281982423,184.61518425292968,265.5004528198242Q184.73598425292968,281.25345281982425,189.3268842529297,290.7954528198242Q193.24628425292968,298.94145281982424,200.80268425292968,302.6164528198242Q209.3655842529297,306.7804528198242,223.2703842529297,306.04145281982426Q229.7749842529297,305.69545281982425,237.2425842529297,304.3004528198242Q252.29168425292968,277.20045281982425,264.26698425292966,258.38145281982423Q277.53598425292967,237.5314528198242,287.33898425292966,226.3884528198242Q292.7449842529297,220.24345281982423,297.4229842529297,216.6854528198242Q303.6929842529297,211.91645281982423,309.6969842529297,211.05845281982423Q314.0719842529297,210.43345281982423,318.0899842529297,211.81345281982422Q322.17598425292965,213.21745281982422,325.23798425292966,216.46345281982423Q329.4769842529297,220.95745281982423,331.2269842529297,228.7044528198242Q333.6459842529297,239.42045281982422,331.8859842529297,259.7944528198242Q328.6219842529297,297.55945281982423,310.8929842529297,373.7714528198242L310.8909842529297,373.7814528198242Q310.83398425292967,374.0274528198242,310.76698425292966,374.27045281982424Q310.69998425292965,374.51345281982424,310.62298425292965,374.7544528198242Q310.54598425292966,374.99445281982423,310.4599842529297,375.2314528198242Q310.37298425292965,375.4684528198242,310.27698425292965,375.7024528198242Q310.18098425292965,375.9354528198242,310.0759842529297,376.1654528198242Q309.9709842529297,376.3944528198242,309.8559842529297,376.61945281982423Q309.7419842529297,376.8444528198242,309.61798425292966,377.0644528198242Q309.4949842529297,377.2844528198242,309.3619842529297,377.4994528198242Q309.2299842529297,377.7144528198242,309.08898425292966,377.9234528198242Q308.9479842529297,378.13345281982424,308.7989842529297,378.3364528198242Q308.6499842529297,378.5404528198242,308.49298425292966,378.7374528198242Q308.3359842529297,378.9354528198242,308.1699842529297,379.12645281982424Q308.0049842529297,379.3174528198242,307.8329842529297,379.50145281982424Q307.6599842529297,379.6854528198242,307.4799842529297,379.8624528198242Q307.2999842529297,380.0394528198242,307.11298425292966,380.20845281982423Q306.92598425292965,380.37845281982425,306.73298425292967,380.5404528198242Q306.5389842529297,380.7024528198242,306.33898425292966,380.8554528198242Q306.1389842529297,381.0094528198242,305.9329842529297,381.15545281982423Q305.7269842529297,381.3014528198242,305.5149842529297,381.4384528198242Q305.3029842529297,381.5754528198242,305.0859842529297,381.7044528198242Q304.8689842529297,381.83345281982423,304.64698425292966,381.9524528198242Q304.4239842529297,382.0724528198242,304.1979842529297,382.1834528198242Q303.9709842529297,382.2934528198242,303.7399842529297,382.39545281982424Q303.5089842529297,382.49645281982424,303.2739842529297,382.5884528198242Q303.0389842529297,382.6804528198242,302.7999842529297,382.76345281982424Q302.5619842529297,382.84545281982423,302.31998425292966,382.9184528198242Q302.0779842529297,382.99145281982425,301.83398425292967,383.05445281982423Q301.58898425292966,383.1174528198242,301.3429842529297,383.1704528198242Q301.0959842529297,383.2234528198242,300.8469842529297,383.2664528198242Q300.5979842529297,383.30945281982423,300.3479842529297,383.34245281982425Q300.0979842529297,383.3754528198242,299.8469842529297,383.3974528198242Q299.5949842529297,383.4204528198242,299.3429842529297,383.4334528198242Q299.0299842529297,383.4494528198242,298.71598425292973,383.4494528198242Q297.28098425292967,383.4494528198242,295.8839842529297,383.1244528198242Q295.6379842529297,383.06645281982424,295.3949842529297,382.9994528198242Q295.1509842529297,382.9324528198242,294.91098425292967,382.8554528198242Q294.67098425292966,382.7794528198242,294.4339842529297,382.6924528198242Q294.1959842529297,382.6064528198242,293.9629842529297,382.5104528198242Q293.7299842529297,382.4144528198242,293.4999842529297,382.3084528198242Q293.2709842529297,382.20345281982424,293.04598425292966,382.0894528198242Q292.8209842529297,381.9744528198242,292.6009842529297,381.8514528198242Q292.3809842529297,381.72745281982424,292.16598425292966,381.59545281982423Q291.9509842529297,381.4634528198242,291.7409842529297,381.3224528198242Q291.53198425292965,381.18145281982424,291.3279842529297,381.03245281982424Q291.1249842529297,380.88345281982424,290.9269842529297,380.7254528198242Q290.7299842529297,380.56845281982424,290.5389842529297,380.4034528198242Q290.3479842529297,380.2384528198242,290.1639842529297,380.0654528198242Q289.9799842529297,379.89345281982423,289.8029842529297,379.7134528198242Q289.6259842529297,379.5334528198242,289.4569842529297,379.3464528198242Q289.2869842529297,379.1594528198242,289.1249842529297,378.96545281982424Q288.9629842529297,378.7724528198242,288.8089842529297,378.57145281982423Q288.6549842529297,378.37145281982424,288.5099842529297,378.1654528198242Q288.3639842529297,377.9594528198242,288.2269842529297,377.7474528198242Q288.0899842529297,377.5364528198242,287.9609842529297,377.3194528198242Q287.8319842529297,377.1014528198242,287.7129842529297,376.8794528198242Q287.5929842529297,376.65745281982424,287.4819842529297,376.4304528198242Q287.3709842529297,376.20345281982424,287.2699842529297,375.97245281982424Q287.1689842529297,375.74145281982425,287.0769842529297,375.50645281982423Q286.9849842529297,375.2714528198242,286.9019842529297,375.0334528198242Q286.81998425292966,374.79445281982424,286.7469842529297,374.5524528198242Q286.6739842529297,374.31145281982424,286.6109842529297,374.06645281982424Q286.5479842529297,373.8224528198242,286.49498425292967,373.5754528198242Q286.4419842529297,373.32845281982424,286.3989842529297,373.08045281982425Q286.3559842529297,372.8314528198242,286.3229842529297,372.5814528198242Q286.2899842529297,372.3314528198242,286.26698425292966,372.0794528198242Q286.24498425292967,371.82845281982424,286.2319842529297,371.5764528198242Q286.2159842529297,371.2624528198242,286.2159842529297,370.9494528198242Q286.2159842529297,369.5144528198242,286.54098425292966,368.11645281982425L286.54598425292966,368.0984528198242Q294.15198425292965,335.39845281982423,299.0179842529297,310.11845281982426Q274.06998425292966,320.92145281982425,253.73598425292968,326.1744528198242Q238.6839842529297,353.7524528198242,220.6367842529297,389.3314528198242L220.6266842529297,389.3504528198242L220.62608425292967,389.35245281982424Q220.43268425292968,389.7334528198242,220.21378425292968,390.1004528198242Q219.9948842529297,390.46745281982425,219.75148425292969,390.81845281982424Q219.5079842529297,391.16945281982424,219.24108425292968,391.50345281982425Q218.9742842529297,391.8374528198242,218.68518425292967,392.1524528198242Q218.3961842529297,392.4664528198242,218.0862842529297,392.7614528198242Q217.7763842529297,393.0554528198242,217.44718425292967,393.3274528198242Q217.11788425292968,393.6004528198242,216.77078425292967,393.8494528198242Q216.4236842529297,394.0994528198242,216.06038425292968,394.3244528198242Q215.6970842529297,394.54945281982424,215.3192842529297,394.7484528198242Q214.94148425292968,394.94845281982424,214.55088425292968,395.12145281982424Q214.16028425292967,395.2954528198242,213.75878425292967,395.44145281982424Q213.35728425292967,395.5884528198242,212.94668425292969,395.7064528198242Q212.53618425292967,395.8254528198242,212.1184842529297,395.9154528198242Q211.7006842529297,396.0054528198242,211.27778425292968,396.0674528198242Q210.85488425292968,396.12845281982425,210.4287842529297,396.1614528198242Q210.0026842529297,396.19345281982424,209.5753842529297,396.1974528198242L209.47818425292968,396.1974528198242Q208.7438842529297,396.1974528198242,208.0145842529297,396.1114528198242Q207.2853842529297,396.02545281982424,206.5711842529297,395.85445281982425Q205.8569842529297,395.6834528198242,205.1676842529297,395.4304528198242Q204.4783842529297,395.1774528198242,203.8234842529297,394.84545281982423Q203.2758842529297,394.5674528198242,202.75808425292968,394.2374528198242Q202.24028425292968,393.90745281982424,201.75728425292968,393.5274528198242Q201.27438425292968,393.14845281982423,200.83098425292968,392.7234528198242Q200.38748425292968,392.29945281982424,199.9878842529297,391.8324528198242Q199.5881842529297,391.36645281982425,199.2361842529297,390.8634528198242Q198.88408425292968,390.3604528198242,198.5830842529297,389.8254528198242Q198.28208425292968,389.2894528198242,198.0349842529297,388.72745281982424Q197.7877842529297,388.1654528198242,197.5969842529297,387.5814528198242Q197.0231842529297,385.8264528198242,196.98138425292967,383.9804528198242Q196.97818425292968,383.8394528198242,196.97818425292968,383.6974528198242Q196.97818425292968,382.9634528198242,197.0641842529297,382.2334528198242Q197.1501842529297,381.5044528198242,197.3209842529297,380.7904528198242Q197.4916842529297,380.0764528198242,197.7449842529297,379.3864528198242Q197.9981842529297,378.6974528198242,198.3303842529297,378.04245281982423L198.33578425292967,378.03245281982424Q211.2541842529297,352.5644528198242,222.69038425292968,331.09045281982424Q203.5632842529297,331.75845281982424,189.86848425292968,325.0984528198242Q174.48948425292969,317.61845281982426,166.7987942529297,301.6344528198242Q159.7796822529297,287.0454528198242,159.6159372329297,265.69145281982424Q159.46285425292967,245.7284528198242,165.28690425292967,219.3104528198242Q176.5958842529297,168.01165281982423,210.7857842529297,90.84884281982421L210.7901842529297,90.83879281982422Q210.79428425292969,90.82961281982422,210.7982842529297,90.82042281982422L210.79918425292968,90.81853281982421Q211.0451842529297,90.26347281982422,211.34388425292968,89.73486281982422Q211.64258425292968,89.20626281982422,211.99118425292968,88.70909281982422Q212.3396842529297,88.21192281982422,212.73478425292967,87.75087281982422Q213.12978425292968,87.28983281982421,213.5676842529297,86.86924281982422Q214.00558425292968,86.44865281982422,214.4821842529297,86.07248281982422Q214.9587842529297,85.69631281982421,215.46958425292968,85.36811281982422Q215.98048425292967,85.03990281982422,216.5206842529297,84.76275281982421Q217.0608842529297,84.48559281982422,217.62538425292968,84.26209881982422Q217.6757842529297,84.24214381982422,217.72638425292968,84.22262681982421Q218.8031842529297,83.80711281982421,219.9377842529297,83.59578281982422Q221.07238425292968,83.38445281982422,222.22658425292968,83.38445281982422Q223.40808425292968,83.38445281982422,224.5686842529297,83.60582481982422Q225.72918425292968,83.82719681982422,226.8277842529297,84.26209881982422Q227.0611842529297,84.35448981982422,227.2905842529297,84.45617281982422Q227.7027842529297,84.63882281982421,228.10078425292969,84.85069281982422Q228.49878425292968,85.06256281982422,228.88038425292967,85.30256281982422Q229.2620842529297,85.54255281982422,229.62548425292968,85.80941281982422Q229.9888842529297,86.07628281982421,230.3320842529297,86.36863281982421Q230.67528425292969,86.66098281982421,230.9965842529297,86.97730281982422Q231.3177842529297,87.29362281982422,231.6154842529297,87.63226281982422Q231.9130842529297,87.97090281982422,232.1855842529297,88.33010281982422Q232.4580842529297,88.68931281982422,232.70398425292967,89.06721281982422Q232.94988425292968,89.44511281982422,233.1678842529297,89.83974281982422Q233.38588425292969,90.23437281982422,233.57488425292968,90.64369281982422Q233.7638842529297,91.05300281982421,233.9229842529297,91.47487281982421Q234.0819842529297,91.89674281982423,234.21028425292968,92.32897281982422Q234.33848425292967,92.76120281982422,234.4352842529297,93.20154281982423Q234.53208425292968,93.64185281982422,234.59688425292967,94.08805281982421Q234.66158425292969,94.53425281982422,234.69408425292968,94.98395281982422Q234.72658425292968,95.43355281982421,234.72658425292968,95.88445281982422Q234.72658425292968,97.06595281982422,234.50518425292967,98.22655281982422Q234.28388425292968,99.38705281982422,233.84898425292968,100.48565281982422ZM271.7279842529297,294.2334528198242Q286.74298425292966,288.6014528198242,304.1989842529297,280.30945281982423Q306.1249842529297,267.5244528198242,306.97898425292965,257.64245281982426Q307.8379842529297,247.70245281982423,307.6119842529297,241.23645281982422Q306.88298425292965,242.02145281982422,306.1089842529297,242.90145281982421Q297.5869842529297,252.58845281982423,285.3589842529297,271.8034528198242Q279.0019842529297,281.79245281982423,271.7279842529297,294.2334528198242Z" fill-rule="evenodd" fill="url(#master_svg6_1_534)" fill-opacity="1"/></g></g></g></svg>