<svg xmlns="http://www.w3.org/2000/svg" xmlns:xlink="http://www.w3.org/1999/xlink" fill="none" version="1.1" width="512" height="512" viewBox="0 0 512 512"><defs><clipPath id="master_svg0_1_0"><rect x="0" y="0" width="512" height="512" rx="0"/></clipPath><filter id="master_svg1_1_715" filterUnits="objectBoundingBox" color-interpolation-filters="sRGB" x="-20" y="-16" width="295.64759826660156" height="400.5939025878906"><feFlood flood-opacity="0" result="BackgroundImageFix"/><feColorMatrix in="SourceAlpha" type="matrix" values="0 0 0 0 0 0 0 0 0 0 0 0 0 0 0 0 0 0 127 0"/><feOffset dy="4" dx="0"/><feGaussianBlur stdDeviation="5"/><feColorMatrix type="matrix" values="0 0 0 0 0 0 0 0 0 0 0 0 0 0 0 0 0 0 0.30000001192092896 0"/><feBlend mode="normal" in2="BackgroundImageFix" result="effect1_dropShadow"/><feBlend mode="normal" in="SourceGraphic" in2="effect1_dropShadow" result="shape"/></filter><linearGradient x1="0.5" y1="0" x2="0.5" y2="1" id="master_svg2_1_953"><stop offset="0%" stop-color="#3478F6" stop-opacity="1"/><stop offset="99.28571581840515%" stop-color="#F63434" stop-opacity="0.8509804010391235"/></linearGradient><linearGradient x1="0.5" y1="0" x2="0.5" y2="1" id="master_svg3_1_534"><stop offset="0%" stop-color="#3478F6" stop-opacity="1"/><stop offset="100%" stop-color="#F63434" stop-opacity="0.8500000238418579"/></linearGradient></defs><g clip-path="url(#master_svg0_1_0)"><g><g transform="matrix(0.9901742339134216,0.13983912765979767,-0.13983912765979767,0.9901742339134216,9.907692929374889,-21.00513042096253)" filter="url(#master_svg1_1_715)"><rect x="154.4251365661621" y="60" width="255.64759826660156" height="360.5939025878906" rx="7" fill="#FFFFFF" fill-opacity="1"/><rect x="146.4251365661621" y="52" width="271.64759826660156" height="376.5939025878906" rx="15" stroke="url(#master_svg2_1_953)" fill-opacity="0" fill="none" stroke-width="16"/></g><g><path d="M242.84898425292968,113.48565281982422Q242.75658425292968,113.71905281982421,242.6548842529297,113.94845281982421Q209.47138425292968,188.83555281982422,198.70068425292968,237.6924528198242Q193.4837842529297,261.3564528198242,193.61518425292968,278.5004528198242Q193.73598425292968,294.25345281982425,198.3268842529297,303.7954528198242Q202.24628425292968,311.94145281982424,209.80268425292968,315.6164528198242Q218.3655842529297,319.7804528198242,232.2703842529297,319.04145281982426Q238.7749842529297,318.69545281982425,246.2425842529297,317.3004528198242Q261.2916842529297,290.20045281982425,273.26698425292966,271.38145281982423Q286.53598425292967,250.5314528198242,296.33898425292966,239.3884528198242Q301.7449842529297,233.24345281982423,306.4229842529297,229.6854528198242Q312.6929842529297,224.91645281982423,318.6969842529297,224.05845281982423Q323.0719842529297,223.43345281982423,327.0899842529297,224.81345281982422Q331.17598425292965,226.21745281982422,334.23798425292966,229.46345281982423Q338.4769842529297,233.95745281982423,340.2269842529297,241.7044528198242Q342.6459842529297,252.42045281982422,340.8859842529297,272.7944528198242Q337.6219842529297,310.55945281982423,319.8929842529297,386.7714528198242L319.8909842529297,386.7814528198242Q319.83398425292967,387.0274528198242,319.76698425292966,387.27045281982424Q319.69998425292965,387.51345281982424,319.62298425292965,387.7544528198242Q319.54598425292966,387.99445281982423,319.4599842529297,388.2314528198242Q319.37298425292965,388.4684528198242,319.27698425292965,388.7024528198242Q319.18098425292965,388.9354528198242,319.0759842529297,389.1654528198242Q318.9709842529297,389.3944528198242,318.8559842529297,389.61945281982423Q318.7419842529297,389.8444528198242,318.61798425292966,390.0644528198242Q318.4949842529297,390.2844528198242,318.3619842529297,390.4994528198242Q318.2299842529297,390.7144528198242,318.08898425292966,390.9234528198242Q317.9479842529297,391.13345281982424,317.7989842529297,391.3364528198242Q317.6499842529297,391.5404528198242,317.49298425292966,391.7374528198242Q317.3359842529297,391.9354528198242,317.1699842529297,392.12645281982424Q317.0049842529297,392.3174528198242,316.8329842529297,392.50145281982424Q316.6599842529297,392.6854528198242,316.4799842529297,392.8624528198242Q316.2999842529297,393.0394528198242,316.11298425292966,393.20845281982423Q315.92598425292965,393.37845281982425,315.73298425292967,393.5404528198242Q315.5389842529297,393.7024528198242,315.33898425292966,393.8554528198242Q315.1389842529297,394.0094528198242,314.9329842529297,394.15545281982423Q314.7269842529297,394.3014528198242,314.5149842529297,394.4384528198242Q314.3029842529297,394.5754528198242,314.0859842529297,394.7044528198242Q313.8689842529297,394.83345281982423,313.64698425292966,394.9524528198242Q313.4239842529297,395.0724528198242,313.1979842529297,395.1834528198242Q312.9709842529297,395.2934528198242,312.7399842529297,395.39545281982424Q312.5089842529297,395.49645281982424,312.2739842529297,395.5884528198242Q312.0389842529297,395.6804528198242,311.7999842529297,395.76345281982424Q311.5619842529297,395.84545281982423,311.31998425292966,395.9184528198242Q311.0779842529297,395.99145281982425,310.83398425292967,396.05445281982423Q310.58898425292966,396.1174528198242,310.3429842529297,396.1704528198242Q310.0959842529297,396.2234528198242,309.8469842529297,396.2664528198242Q309.5979842529297,396.30945281982423,309.3479842529297,396.34245281982425Q309.0979842529297,396.3754528198242,308.8469842529297,396.3974528198242Q308.5949842529297,396.4204528198242,308.3429842529297,396.4334528198242Q308.0299842529297,396.4494528198242,307.71598425292973,396.4494528198242Q306.28098425292967,396.4494528198242,304.8839842529297,396.1244528198242Q304.6379842529297,396.06645281982424,304.3949842529297,395.9994528198242Q304.1509842529297,395.9324528198242,303.91098425292967,395.8554528198242Q303.67098425292966,395.7794528198242,303.4339842529297,395.6924528198242Q303.1959842529297,395.6064528198242,302.9629842529297,395.5104528198242Q302.7299842529297,395.4144528198242,302.4999842529297,395.3084528198242Q302.2709842529297,395.20345281982424,302.04598425292966,395.0894528198242Q301.8209842529297,394.9744528198242,301.6009842529297,394.8514528198242Q301.3809842529297,394.72745281982424,301.16598425292966,394.59545281982423Q300.9509842529297,394.4634528198242,300.7409842529297,394.3224528198242Q300.53198425292965,394.18145281982424,300.3279842529297,394.03245281982424Q300.1249842529297,393.88345281982424,299.9269842529297,393.7254528198242Q299.7299842529297,393.56845281982424,299.5389842529297,393.4034528198242Q299.3479842529297,393.2384528198242,299.1639842529297,393.0654528198242Q298.9799842529297,392.89345281982423,298.8029842529297,392.7134528198242Q298.6259842529297,392.5334528198242,298.4569842529297,392.3464528198242Q298.2869842529297,392.1594528198242,298.1249842529297,391.96545281982424Q297.9629842529297,391.7724528198242,297.8089842529297,391.57145281982423Q297.6549842529297,391.37145281982424,297.5099842529297,391.1654528198242Q297.3639842529297,390.9594528198242,297.2269842529297,390.7474528198242Q297.0899842529297,390.5364528198242,296.9609842529297,390.3194528198242Q296.8319842529297,390.1014528198242,296.7129842529297,389.8794528198242Q296.5929842529297,389.65745281982424,296.4819842529297,389.4304528198242Q296.3709842529297,389.20345281982424,296.2699842529297,388.97245281982424Q296.1689842529297,388.74145281982425,296.0769842529297,388.50645281982423Q295.9849842529297,388.2714528198242,295.9019842529297,388.0334528198242Q295.81998425292966,387.79445281982424,295.7469842529297,387.5524528198242Q295.6739842529297,387.31145281982424,295.6109842529297,387.06645281982424Q295.5479842529297,386.8224528198242,295.49498425292967,386.5754528198242Q295.4419842529297,386.32845281982424,295.3989842529297,386.08045281982425Q295.3559842529297,385.8314528198242,295.3229842529297,385.5814528198242Q295.2899842529297,385.3314528198242,295.26698425292966,385.0794528198242Q295.24498425292967,384.82845281982424,295.2319842529297,384.5764528198242Q295.2159842529297,384.2624528198242,295.2159842529297,383.9494528198242Q295.2159842529297,382.5144528198242,295.54098425292966,381.11645281982425L295.54598425292966,381.0984528198242Q303.15198425292965,348.39845281982423,308.0179842529297,323.11845281982426Q283.06998425292966,333.92145281982425,262.7359842529297,339.1744528198242Q247.6839842529297,366.7524528198242,229.6367842529297,402.3314528198242L229.6266842529297,402.3504528198242L229.62608425292967,402.35245281982424Q229.43268425292968,402.7334528198242,229.21378425292968,403.1004528198242Q228.9948842529297,403.46745281982425,228.75148425292969,403.81845281982424Q228.5079842529297,404.16945281982424,228.24108425292968,404.50345281982425Q227.9742842529297,404.8374528198242,227.68518425292967,405.1524528198242Q227.3961842529297,405.4664528198242,227.0862842529297,405.7614528198242Q226.7763842529297,406.0554528198242,226.44718425292967,406.3274528198242Q226.11788425292968,406.6004528198242,225.77078425292967,406.8494528198242Q225.4236842529297,407.0994528198242,225.06038425292968,407.3244528198242Q224.6970842529297,407.54945281982424,224.3192842529297,407.7484528198242Q223.94148425292968,407.94845281982424,223.55088425292968,408.12145281982424Q223.16028425292967,408.2954528198242,222.75878425292967,408.44145281982424Q222.35728425292967,408.5884528198242,221.94668425292969,408.7064528198242Q221.53618425292967,408.8254528198242,221.1184842529297,408.9154528198242Q220.7006842529297,409.0054528198242,220.27778425292968,409.0674528198242Q219.85488425292968,409.12845281982425,219.4287842529297,409.1614528198242Q219.0026842529297,409.19345281982424,218.5753842529297,409.1974528198242L218.47818425292968,409.1974528198242Q217.7438842529297,409.1974528198242,217.0145842529297,409.1114528198242Q216.2853842529297,409.02545281982424,215.5711842529297,408.85445281982425Q214.8569842529297,408.6834528198242,214.1676842529297,408.4304528198242Q213.4783842529297,408.1774528198242,212.8234842529297,407.84545281982423Q212.2758842529297,407.5674528198242,211.75808425292968,407.2374528198242Q211.24028425292968,406.90745281982424,210.75728425292968,406.5274528198242Q210.27438425292968,406.14845281982423,209.83098425292968,405.7234528198242Q209.38748425292968,405.29945281982424,208.9878842529297,404.8324528198242Q208.5881842529297,404.36645281982425,208.2361842529297,403.8634528198242Q207.88408425292968,403.3604528198242,207.5830842529297,402.8254528198242Q207.28208425292968,402.2894528198242,207.0349842529297,401.72745281982424Q206.7877842529297,401.1654528198242,206.5969842529297,400.5814528198242Q206.0231842529297,398.8264528198242,205.98138425292967,396.9804528198242Q205.97818425292968,396.8394528198242,205.97818425292968,396.6974528198242Q205.97818425292968,395.9634528198242,206.0641842529297,395.2334528198242Q206.1501842529297,394.5044528198242,206.3209842529297,393.7904528198242Q206.4916842529297,393.0764528198242,206.7449842529297,392.3864528198242Q206.9981842529297,391.6974528198242,207.3303842529297,391.04245281982423L207.33578425292967,391.03245281982424Q220.2541842529297,365.5644528198242,231.69038425292968,344.09045281982424Q212.5632842529297,344.75845281982424,198.86848425292968,338.0984528198242Q183.48948425292969,330.61845281982426,175.7987942529297,314.6344528198242Q168.7796822529297,300.0454528198242,168.6159372329297,278.69145281982424Q168.46285425292967,258.7284528198242,174.28690425292967,232.3104528198242Q185.5958842529297,181.01165281982423,219.7857842529297,103.84884281982421L219.7901842529297,103.83879281982422Q219.79428425292969,103.82961281982422,219.7982842529297,103.82042281982422L219.79918425292968,103.81853281982421Q220.0451842529297,103.26347281982422,220.34388425292968,102.73486281982422Q220.64258425292968,102.20626281982422,220.99118425292968,101.70909281982422Q221.3396842529297,101.21192281982422,221.73478425292967,100.75087281982422Q222.12978425292968,100.28983281982421,222.5676842529297,99.86924281982422Q223.00558425292968,99.44865281982422,223.4821842529297,99.07248281982422Q223.9587842529297,98.69631281982421,224.46958425292968,98.36811281982422Q224.98048425292967,98.03990281982422,225.5206842529297,97.76275281982421Q226.0608842529297,97.48559281982422,226.62538425292968,97.26209881982422Q226.6757842529297,97.24214381982422,226.72638425292968,97.22262681982421Q227.8031842529297,96.80711281982421,228.9377842529297,96.59578281982422Q230.07238425292968,96.38445281982422,231.22658425292968,96.38445281982422Q232.40808425292968,96.38445281982422,233.5686842529297,96.60582481982422Q234.72918425292968,96.82719681982422,235.8277842529297,97.26209881982422Q236.0611842529297,97.35448981982422,236.2905842529297,97.45617281982422Q236.7027842529297,97.63882281982421,237.10078425292969,97.85069281982422Q237.49878425292968,98.06256281982422,237.88038425292967,98.30256281982422Q238.2620842529297,98.54255281982422,238.62548425292968,98.80941281982422Q238.9888842529297,99.07628281982421,239.3320842529297,99.36863281982421Q239.67528425292969,99.66098281982421,239.9965842529297,99.97730281982422Q240.3177842529297,100.29362281982422,240.6154842529297,100.63226281982422Q240.9130842529297,100.97090281982422,241.1855842529297,101.33010281982422Q241.4580842529297,101.68931281982422,241.70398425292967,102.06721281982422Q241.94988425292968,102.44511281982422,242.1678842529297,102.83974281982422Q242.38588425292969,103.23437281982422,242.57488425292968,103.64369281982422Q242.7638842529297,104.05300281982421,242.9229842529297,104.47487281982421Q243.0819842529297,104.89674281982423,243.21028425292968,105.32897281982422Q243.33848425292967,105.76120281982422,243.4352842529297,106.20154281982423Q243.53208425292968,106.64185281982422,243.59688425292967,107.08805281982421Q243.66158425292969,107.53425281982422,243.69408425292968,107.98395281982422Q243.72658425292968,108.43355281982421,243.72658425292968,108.88445281982422Q243.72658425292968,110.06595281982422,243.50518425292967,111.22655281982422Q243.28388425292968,112.38705281982422,242.84898425292968,113.48565281982422ZM280.7279842529297,307.2334528198242Q295.74298425292966,301.6014528198242,313.1989842529297,293.30945281982423Q315.1249842529297,280.5244528198242,315.97898425292965,270.64245281982426Q316.8379842529297,260.7024528198242,316.6119842529297,254.23645281982422Q315.88298425292965,255.02145281982422,315.1089842529297,255.90145281982421Q306.5869842529297,265.5884528198242,294.3589842529297,284.8034528198242Q288.0019842529297,294.79245281982423,280.7279842529297,307.2334528198242Z" fill-rule="evenodd" fill="url(#master_svg3_1_534)" fill-opacity="1"/></g></g></g></svg>